# xmcd
#
# Track frame offsets: 
#        150
#        39250
#        57355
#        76578
#        91273
#        126999
#        144531
#        159584
#        186239
#        215515
#
# Disc length: 3020 seconds
#
# Revision: 0
# Processed by: cddbd v1.5.2PL0 Copyright (c) Steve Scherf et al.
# Submitted via: ExactAudioCopy v0.99pb3
#
DISCID=820bca0a
DTITLE=Leszek Winder - Blues forever
DYEAR=2004
DGENRE=Blues
TTITLE0=Rock me now
TTITLE1=Gram co chce
TTITLE2=Blues o  slonym paluszku
TTITLE3=Glazja
TTITLE4=Blues dla Dzidka
TTITLE5=Nigdy cie nie zapomne
TTITLE6=Mysle dzwiekam
TTITLE7=Blues o smierci
TTITLE8=Wilczyca
TTITLE9=Blues okularnika
EXTD=
EXTT0=
EXTT1=
EXTT2=
EXTT3=
EXTT4=
EXTT5=
EXTT6=
EXTT7=
EXTT8=
EXTT9=
PLAYORDER=
